<svg width="56" height="49" viewBox="0 0 56 49" fill="none" xmlns="http://www.w3.org/2000/svg">
<path d="M51.7569 0C49.4799 0 47.621 1.81727 47.5283 4.07235C42.0596 6.80208 32.6384 11.9893 21.2035 13.6721C20.6351 11.9977 19.0624 10.7776 17.2015 10.7776H10.7268C8.59054 10.7776 6.82653 12.3811 6.54115 14.4417C2.76767 14.453 3.7796e-06 17.6822 0 21.5043C3.7796e-06 25.3319 2.75344 28.5589 6.54115 28.5611C6.82738 30.6216 8.59121 32.2291 10.7268 32.2291H17.2015C17.4222 32.2291 17.6385 32.2076 17.85 32.1745L21.0414 43.3895C21.4254 44.7382 20.6696 46.0954 19.3207 46.4794C17.9721 46.8634 16.6148 46.1075 16.2308 44.7587L13.3342 34.5807C13.1828 34.0504 12.6305 33.7428 12.0998 33.8932C11.5677 34.0438 11.2588 34.5977 11.4104 35.1296L14.3089 45.3056C14.9868 47.6865 17.4864 49.0793 19.8676 48.4013C22.2485 47.7235 23.6413 45.2238 22.9633 42.8426L21.6079 38.0789C23.0249 37.7797 24.1422 37.299 24.981 36.6511C26.0349 35.8371 26.6303 34.7721 26.8755 33.7253C27.1537 32.5376 27.0265 31.4109 26.7954 30.4557C35.7029 32.6986 42.9953 36.6674 47.5419 38.9363C47.699 41.1314 49.5234 42.8817 51.7569 42.8817C54.0926 42.8817 56.0011 40.9732 56.0011 38.6375V16.4398C55.9991 15.8905 55.5542 15.4458 55.005 15.4437C54.4519 15.4407 54.0013 15.8867 53.9991 16.4398V38.6375C53.9991 39.8998 53.0192 40.8817 51.7569 40.8817C50.4946 40.8817 49.5127 39.8998 49.5127 38.6375V4.24424C49.5127 2.98193 50.4946 1.99224 51.7569 1.99224C53.0192 1.99224 53.9991 2.98193 53.9991 4.24424V12.4378C53.9961 12.9946 54.4481 13.4469 55.005 13.4436C55.5581 13.4416 56.0043 12.9908 56.0011 12.4378V4.24424C56.0011 1.90851 54.0926 7.20902e-06 51.7569 7.20902e-06L51.7569 0ZM47.5088 6.28332V36.7175C42.0315 33.9485 32.8814 29.0759 21.4457 27.3951V15.6058C32.8814 13.925 42.0315 9.05233 47.5088 6.28332ZM10.7268 12.7717H17.2015C18.4476 12.7717 19.4211 13.7367 19.4418 14.9769V28.024C19.4214 29.2642 18.4476 30.2291 17.2015 30.2291H10.7268C9.46731 30.2291 8.48259 29.2444 8.48259 27.9849V15.0159C8.48259 13.7565 9.46731 12.7717 10.7268 12.7717ZM6.48255 16.43V26.5591C3.90738 26.5338 2.00004 24.3534 2.00004 21.5043C2.00004 18.6414 3.89499 16.4345 6.48255 16.43ZM21.1977 29.3482C22.3211 29.5136 23.4302 29.7047 24.5161 29.9342C24.8427 30.8164 25.1974 32.1193 24.9282 33.2682C24.7716 33.9366 24.4517 34.5315 23.7583 35.0671C23.1978 35.5 22.2632 35.8561 21.0473 36.1062C20.5983 34.5355 20.1508 32.9644 19.7035 31.3932C20.3872 30.8826 20.9142 30.1715 21.1977 29.3482Z" fill="#424241"/>
</svg>
